<?xml version="1.0" standalone="no"?>
<!DOCTYPE svg PUBLIC "-//W3C//DTD SVG 20010904//EN"
 "http://www.w3.org/TR/2001/REC-SVG-20010904/DTD/svg10.dtd">
<svg version="1.0" xmlns="http://www.w3.org/2000/svg"
 width="512.000000pt" height="512.000000pt" viewBox="0 0 512.000000 512.000000"
 preserveAspectRatio="xMidYMid meet">

<g transform="translate(0.000000,512.000000) scale(0.100000,-0.100000)"
fill="#000000" stroke="none">
<path d="M2375 5114 c-324 -31 -585 -97 -840 -209 -187 -83 -412 -214 -465
-270 -53 -57 -18 -149 61 -161 30 -5 48 4 144 66 129 83 329 183 470 235 101
38 350 105 387 105 20 0 20 -1 2 -27 -162 -244 -276 -544 -368 -974 l-17 -76
-67 -17 c-146 -36 -257 -141 -306 -288 -5 -17 -38 -18 -496 -18 -269 0 -490 3
-490 6 0 18 116 241 166 319 72 112 77 151 25 197 -29 26 -40 29 -73 25 -51
-7 -59 -14 -125 -120 -527 -854 -507 -1941 52 -2775 l43 -63 -30 -58 c-130
-252 24 -555 306 -604 85 -14 179 1 257 41 l57 29 88 -57 c407 -264 835 -399
1318 -417 892 -33 1734 405 2232 1163 283 430 430 959 411 1480 -18 483 -153
911 -417 1318 l-57 88 29 57 c40 78 55 172 41 257 -49 282 -352 436 -604 306
l-58 -30 -63 43 c-318 213 -676 351 -1068 410 -100 15 -459 28 -545 19z m273
-219 c219 -102 438 -598 541 -1225 12 -69 23 -140 26 -158 l6 -32 -517 2 -516
3 -18 48 c-34 90 -97 157 -219 234 -6 4 26 149 66 303 132 507 351 850 543
850 19 0 59 -11 88 -25z m494 -49 c73 -18 178 -50 233 -71 228 -84 554 -267
540 -303 -24 -62 -37 -143 -32 -202 24 -291 310 -463 589 -355 14 5 30 -12 75
-82 55 -83 183 -325 183 -344 0 -5 -278 -9 -653 -9 l-653 0 -28 168 c-79 487
-211 894 -370 1142 -23 36 -45 71 -50 78 -12 19 20 15 166 -22z m1259 -354
c163 -85 154 -316 -16 -393 -146 -67 -318 59 -303 221 11 110 109 200 218 200
33 0 64 -9 101 -28z m-2524 -917 c104 -52 151 -177 104 -280 -78 -171 -308
-179 -394 -15 -24 46 -28 64 -25 112 11 159 173 253 315 183z m-501 -312 c37
-110 121 -210 216 -257 l57 -28 -6 -276 c-5 -248 2 -484 24 -774 l6 -88 -681
0 -680 0 -11 33 c-22 67 -61 242 -78 350 -13 84 -17 170 -17 342 0 273 20 416
90 663 l15 52 530 0 c496 0 530 -1 535 -17z m1869 5 c20 -64 41 -708 30 -949
l-7 -167 -33 -5 c-61 -10 -144 -59 -200 -118 -50 -52 -105 -144 -105 -176 0
-19 -1049 -19 -1055 0 -20 63 -41 707 -30 948 l7 166 49 12 c61 16 155 76 197
127 29 35 70 110 86 157 5 16 39 17 531 17 412 0 527 -3 530 -12z m1574 -20
c22 -68 61 -243 77 -351 25 -158 25 -509 1 -667 -19 -118 -46 -244 -73 -337
l-15 -53 -532 0 -533 0 -28 66 c-37 83 -108 162 -185 203 l-60 32 6 277 c5
248 -2 484 -24 775 l-6 87 681 0 680 0 11 -32z m-1388 -1315 c35 -19 64 -43
84 -71 27 -40 30 -51 30 -122 0 -71 -3 -82 -30 -122 -35 -50 -120 -98 -174
-98 -127 0 -225 96 -225 220 0 166 167 268 315 193z m-1707 -460 c81 -498 213
-902 380 -1158 37 -58 42 -70 28 -73 -27 -4 -277 62 -387 103 -228 84 -554
267 -540 303 24 62 37 143 32 202 -24 291 -310 463 -589 355 -14 -5 -30 12
-75 82 -55 83 -183 325 -183 344 0 5 278 9 653 9 l653 0 28 -167z m1206 155
c0 -7 11 -37 25 -66 30 -65 111 -152 170 -183 25 -13 45 -29 45 -35 0 -23 -61
-279 -91 -382 -112 -386 -275 -665 -431 -737 -67 -31 -109 -31 -176 0 -219
102 -430 579 -542 1225 -16 96 -30 178 -30 183 0 4 232 7 515 7 405 0 515 -3
515 -12z m1800 5 c0 -13 -118 -241 -160 -308 -186 -299 -476 -589 -775 -775
-105 -65 -287 -154 -410 -201 -110 -41 -357 -109 -397 -109 -20 0 -20 0 -2 28
160 240 279 554 368 973 l17 76 62 17 c134 37 230 119 283 240 l28 66 493 0
c271 0 493 -3 493 -7z m-3809 -621 c168 -87 151 -330 -27 -398 -143 -54 -302
65 -292 218 8 116 105 208 218 208 33 0 64 -9 101 -28z"/>
<path d="M734 4346 c-37 -37 -43 -70 -20 -115 15 -28 53 -51 86 -51 51 0 100
49 100 99 0 34 -23 72 -51 87 -45 23 -78 17 -115 -20z"/>
</g>
</svg>
