<svg id="Capa_1" enable-background="new 0 0 512 512" height="512" viewBox="0 0 512 512" width="512" xmlns="http://www.w3.org/2000/svg"><g><path d="m495 497v-159.061h-15v159.061h-45v-342.747h45v168.686h15v-183.686h-75v357.747h-45.401l.414-233.634h-75l-.414 233.634h-44.599v-297.488h-75v201.162h15v-186.162h45v282.488h-45v-81.325h-15v81.325h-45v-158.14h-75v158.14h-45v-467h-15v482h512v-15zm-180.014-218.635h45l-.387 218.635h-45zm-239.986 75.495h45v143.14h-45z"/><path d="m0 0h15v15h-15z"/><path d="m97.5 293.842c9.603 0 19.206-3.655 26.517-10.965 14.621-14.622 14.621-38.412 0-53.033-.566-.566-1.15-1.102-1.743-1.625l64.884-89.171c1.14 1.568 2.413 3.068 3.825 4.481 7.311 7.311 16.914 10.965 26.517 10.965s19.206-3.655 26.517-10.965c2.762-2.762 5.001-5.852 6.719-9.145l49.785 40.4c-1.878 11.513 1.603 23.739 10.463 32.599 7.311 7.311 16.914 10.966 26.517 10.966s19.206-3.655 26.517-10.966c12.848-12.848 14.402-32.774 4.67-47.34l68.285-71.905c6.21 4.064 13.368 6.099 20.528 6.099 9.603 0 19.207-3.655 26.517-10.965 14.621-14.622 14.621-38.412 0-53.033-14.623-14.622-38.413-14.621-53.033 0-12.848 12.848-14.401 32.775-4.67 47.34l-68.285 71.905c-14.538-9.515-34.284-7.895-47.045 4.867-1.797 1.797-3.37 3.734-4.725 5.773l-51.311-41.638c.393-10.088-3.247-20.304-10.931-27.989-14.621-14.621-38.411-14.622-53.033 0-8.772 8.773-12.274 20.846-10.52 32.259l-71.295 97.982c-13.001-4.234-27.872-1.206-38.184 9.107-14.621 14.621-14.621 38.412 0 53.033 7.308 7.309 16.911 10.964 26.514 10.964zm344.089-252.998c4.387-4.387 10.147-6.58 15.91-6.58 5.761 0 11.524 2.194 15.91 6.58 8.772 8.773 8.772 23.047 0 31.82s-23.048 8.772-31.82 0c-8.773-8.773-8.773-23.047 0-31.82zm-120 124.111c8.771-8.772 23.047-8.773 31.82 0 8.772 8.773 8.772 23.047 0 31.82-8.773 8.773-23.048 8.772-31.82 0s-8.772-23.047 0-31.82zm-120-63.853c8.773-8.772 23.048-8.772 31.82 0 8.773 8.773 8.773 23.047 0 31.82-8.773 8.772-23.047 8.772-31.82 0-8.772-8.773-8.772-23.047 0-31.82zm-119.999 139.348c4.387-4.387 10.147-6.58 15.91-6.58 5.761 0 11.524 2.194 15.91 6.58 8.772 8.772 8.772 23.047 0 31.82-8.773 8.772-23.048 8.772-31.82 0-8.773-8.773-8.773-23.047 0-31.82z"/><path d="m89.999 467.014h15v15h-15z"/><path d="m449.999 237.229h15v15h-15z"/><path d="m449.999 177.229h15v45h-15z"/><path d="m210 236.999h15v45h-15z"/><path d="m210 296.999h15v15h-15z"/><path d="m330 429.514h15v45h-15z"/><path d="m330 399.513h15v15h-15z"/></g></svg>