<svg version="1.1" xmlns="http://www.w3.org/2000/svg" xmlns:xlink="http://www.w3.org/1999/xlink" viewBox="0 0 172 172"><g fill="none" fill-rule="nonzero" stroke="none" stroke-width="1" stroke-linecap="butt" stroke-linejoin="miter" stroke-miterlimit="10" stroke-dasharray="" stroke-dashoffset="0" font-family="none" font-weight="none" font-size="none" text-anchor="none" style="mix-blend-mode: normal"><path d="M0,172v-172h172v172z" fill="none"></path><g><path d="M129,159.90625h-86c-7.39062,0 -13.4375,-6.04687 -13.4375,-13.4375v-120.9375c0,-7.39062 6.04688,-13.4375 13.4375,-13.4375h86c7.39063,0 13.4375,6.04688 13.4375,13.4375v120.9375c0,7.39063 -6.04687,13.4375 -13.4375,13.4375z" fill="#ffffff"></path><path d="M123.43177,118.06012c-10.49516,10.49552 -10.49486,27.51183 0.00066,38.00699c10.49552,10.49516 27.51183,10.49486 38.00699,-0.00066c10.49516,-10.49552 10.49486,-27.51183 -0.00066,-38.00699c-10.49552,-10.49516 -27.51183,-10.49486 -38.00699,0.00066z" fill="#1abc9c"></path><path d="M160.175,140.2875v0c-8.86875,11.825 -26.60625,11.825 -35.475,0v0c-1.47812,-1.88125 -1.47812,-4.56875 0,-6.45v0c8.86875,-11.825 26.60625,-11.825 35.475,0v0c1.47812,1.88125 1.47812,4.56875 0,6.45z" fill="#ffffff"></path><path d="M137.68464,132.3125c-2.62379,2.62388 -2.62372,6.87796 0.00017,9.50175c2.62388,2.62379 6.87796,2.62372 9.50175,-0.00017c2.62379,-2.62388 2.62372,-6.87796 -0.00017,-9.50175c-2.62388,-2.62379 -6.87796,-2.62372 -9.50175,0.00017z" fill="#1abc9c"></path><path d="M115.5625,83.3125h-59.125c-2.28438,0 -4.03125,-1.74688 -4.03125,-4.03125c0,-2.28437 1.74687,-4.03125 4.03125,-4.03125h59.125c2.28437,0 4.03125,1.74688 4.03125,4.03125c0,2.28437 -1.74688,4.03125 -4.03125,4.03125zM102.125,43h-32.25c-2.28437,0 -4.03125,-1.74688 -4.03125,-4.03125c0,-2.28437 1.74688,-4.03125 4.03125,-4.03125h32.25c2.28437,0 4.03125,1.74688 4.03125,4.03125c0,2.28437 -1.74688,4.03125 -4.03125,4.03125zM115.5625,103.46875h-59.125c-2.28438,0 -4.03125,-1.74688 -4.03125,-4.03125c0,-2.28437 1.74687,-4.03125 4.03125,-4.03125h59.125c2.28437,0 4.03125,1.74688 4.03125,4.03125c0,2.28437 -1.74688,4.03125 -4.03125,4.03125zM94.0625,123.625h-37.625c-2.28438,0 -4.03125,-1.74688 -4.03125,-4.03125c0,-2.28437 1.74687,-4.03125 4.03125,-4.03125h37.625c2.28437,0 4.03125,1.74688 4.03125,4.03125c0,2.28437 -1.74688,4.03125 -4.03125,4.03125z" fill="#ecf0f1"></path><g fill="#1abc9c"><path d="M42.73125,163.9375h59.39375c2.28437,0 4.03125,-1.74687 4.03125,-4.03125c0,-2.28438 -1.74688,-4.03125 -4.03125,-4.03125h-59.39375c-5.24063,0 -9.40625,-4.16563 -9.40625,-9.40625v-120.9375c0,-5.24063 4.16562,-9.40625 9.40625,-9.40625h86.67187c2.55313,0 4.8375,0.94063 6.71875,2.82187c1.88125,1.88125 2.6875,4.16563 2.6875,6.71875l-0.5375,64.5c0,2.28438 1.74687,4.03125 4.03125,4.03125v0c2.15,0 4.03125,-1.74687 4.03125,-4.03125l0.5375,-64.5c0,-4.70312 -1.74687,-9.1375 -5.10625,-12.3625c-3.35937,-3.225 -7.79375,-5.24062 -12.49687,-5.24062h-86.5375c-9.675,0 -17.46875,7.79375 -17.46875,17.46875v120.9375c0,9.675 7.79375,17.46875 17.46875,17.46875z"></path></g></g></g></svg>