<svg xmlns="http://www.w3.org/2000/svg" width="256" height="256" viewBox="0 0 100 100"><rect width="100" height="100" rx="20" fill="#7d6ee7"></rect><path fill="#fff" d="M20.56 68.16L20.56 68.16Q24.08 68.16 25.84 66.52Q27.60 64.88 27.60 61.04L27.60 61.04L27.60 25.76Q28.16 25.60 29.28 25.40Q30.40 25.20 31.52 25.20L31.52 25.20Q33.84 25.20 35.00 26.08Q36.16 26.96 36.16 29.20L36.16 29.20L36.16 61.76Q36.16 65.36 35.08 67.92Q34.00 70.48 32.16 72.12Q30.32 73.76 27.80 74.52Q25.28 75.28 22.32 75.28L22.32 75.28Q17.84 75.28 15.52 74.08Q13.20 72.88 13.20 70.48L13.20 70.48Q13.20 69.28 13.68 68.36Q14.16 67.44 14.56 66.96L14.56 66.96Q15.92 67.44 17.44 67.80Q18.96 68.16 20.56 68.16ZM84.96 38.08L84.96 38.08Q84.96 41.60 83.20 44.36Q81.44 47.12 77.60 48.72L77.60 48.72Q82.24 50.24 84.52 53.36Q86.80 56.48 86.80 60.64L86.80 60.64Q86.80 68.16 81.40 71.72Q76 75.28 65.92 75.28L65.92 75.28Q62.80 75.28 59.32 74.96Q55.84 74.64 52.88 73.76L52.88 73.76Q49.20 72.72 49.20 69.52L49.20 69.52L49.20 29.52Q49.20 28.16 49.96 27.40Q50.72 26.64 52.08 26.24L52.08 26.24Q54.80 25.36 58.12 25.04Q61.44 24.72 65.28 24.72L65.28 24.72Q74.64 24.72 79.80 28.00Q84.96 31.28 84.96 38.08ZM78.08 60.40L78.08 60.40Q78.08 56.72 75.36 54.60Q72.64 52.48 67.52 52.48L67.52 52.48L57.60 52.48L57.60 67.68Q59.28 68.08 61.60 68.28Q63.92 68.48 66.24 68.48L66.24 68.48Q71.92 68.48 75 66.52Q78.08 64.56 78.08 60.40ZM57.60 32.08L57.60 46.00L67.12 46.00Q71.68 46.00 74 44.00Q76.32 42.00 76.32 38.56L76.32 38.56Q76.32 31.52 65.28 31.52L65.28 31.52Q62.96 31.52 61.04 31.68Q59.12 31.84 57.60 32.08L57.60 32.08Z"></path></svg>